<svg width="566" height="74" viewBox="0 0 566 74" fill="none" xmlns="http://www.w3.org/2000/svg">
<path d="M15 7H551" stroke="#B30000" stroke-width="2"/>
<path d="M559 7L559 15M559 7L551 7M559 7L562 7C563.657 7 565 5.65685 565 4C565 2.34315 563.657 1 562 1C560.343 1 559 2.34315 559 4L559 7Z" stroke="#B30000" stroke-width="2"/>
<path d="M7 7H15M7 7V15M7 7V4C7 2.34315 5.65685 1 4 1C2.34315 1 1 2.34315 1 4C1 5.65685 2.34315 7 4 7H7Z" stroke="#B30000" stroke-width="2"/>
<path d="M7 15L7 55" stroke="#B30000" stroke-width="2"/>
<path d="M559 15L559 55" stroke="#B30000" stroke-width="2"/>
<path d="M551 67H15" stroke="#B30000" stroke-width="2"/>
<path d="M7 67L7 55M7 67L15 67M7 67L4 67C2.34315 67 1 68.3431 1 70C1 71.6569 2.34315 73 4 73C5.65685 73 7 71.6569 7 70L7 67Z" stroke="#B30000" stroke-width="2"/>
<path d="M559 67L551 67M559 67L559 55M559 67L559 70C559 71.6569 560.343 73 562 73C563.657 73 565 71.6569 565 70C565 68.3431 563.657 67 562 67L559 67Z" stroke="#B30000" stroke-width="2"/>
</svg>
