<svg width="64" height="64" viewBox="0 0 64 64" fill="none" xmlns="http://www.w3.org/2000/svg">
<g clip-path="url(#clip0_5322_5571)">
<path d="M15.5886 6.13032C17.7089 5.25204 19.9815 4.8 22.2765 4.8C24.5716 4.8 26.8442 5.25205 28.9645 6.13032C31.0849 7.0086 33.0115 8.29592 34.6343 9.91876L35.7657 8.78739C33.9943 7.01597 31.8913 5.6108 29.5768 4.65212C27.2623 3.69343 24.7817 3.2 22.2765 3.2C19.7714 3.2 17.2907 3.69343 14.9763 4.65211C12.6618 5.6108 10.5588 7.01597 8.78739 8.78739C7.01597 10.5588 5.6108 12.6618 4.65212 14.9763C3.69343 17.2907 3.2 19.7714 3.2 22.2765C3.2 24.7817 3.69343 27.2623 4.65211 29.5768C5.6108 31.8913 7.01597 33.9943 8.78739 35.7657L9.91876 34.6343C8.29591 33.0115 7.0086 31.0849 6.13032 28.9645C5.25204 26.8442 4.8 24.5716 4.8 22.2765C4.8 19.9815 5.25204 17.7089 6.13032 15.5886C7.0086 13.4682 8.29591 11.5416 9.91876 9.91876C11.5416 8.29591 13.4682 7.0086 15.5886 6.13032Z" fill="#F2F2F2"/>
<path fill-rule="evenodd" clip-rule="evenodd" d="M44.8 22.4C44.8 27.686 42.9691 32.5443 39.9067 36.3754L44.8617 41.3303C46.5558 40.8572 48.4477 41.2758 49.7951 42.5907L63.9383 56.3931L56.3931 63.9383L42.5907 49.7951C41.2758 48.4477 40.8572 46.5558 41.3303 44.8617L36.3754 39.9067C32.5443 42.9691 27.686 44.8 22.4 44.8C10.0288 44.8 0 34.7712 0 22.4C0 10.0288 10.0288 0 22.4 0C34.7712 0 44.8 10.0288 44.8 22.4ZM43.2 22.4C43.2 33.8875 33.8875 43.2 22.4 43.2C10.9125 43.2 1.6 33.8875 1.6 22.4C1.6 10.9125 10.9125 1.6 22.4 1.6C33.8875 1.6 43.2 10.9125 43.2 22.4ZM42.0557 43.3243C42.225 43.0818 42.4179 42.8507 42.6343 42.6343C42.8507 42.4179 43.0818 42.225 43.3243 42.0557L38.8609 37.5923C38.455 38.0318 38.0318 38.455 37.5923 38.8609L42.0557 43.3243ZM43.7657 43.7657C45.1187 42.4127 47.3082 42.3993 48.6776 43.7357L61.6617 56.4069L56.4069 61.6617L43.7357 48.6776C42.3993 47.3082 42.4127 45.1187 43.7657 43.7657Z" fill="#F2F2F2"/>
</g>
<defs>
<clipPath id="clip0_5322_5571">
<rect width="64" height="64" fill="white"/>
</clipPath>
</defs>
</svg>
