<svg width="287" height="50" viewBox="0 0 287 50" fill="none" xmlns="http://www.w3.org/2000/svg">
<path d="M27.4646 8.53516L11.7318 47.2261H0.000957489L15.7338 8.53516H27.4646Z" fill="#B27171"/>
<path d="M46.1191 8.53516L30.3863 47.2261H18.6555L34.3883 8.53516H46.1191Z" fill="#B27171"/>
<path d="M34.7193 8.53516L50.4521 47.2261H62.1829L46.4501 8.53516H34.7193Z" fill="#D9D9D9"/>
<path d="M16.0647 8.53516L31.7975 47.2261H43.5283L27.7955 8.53516H16.0647Z" fill="#D9D9D9"/>
<path d="M17.791 32.0248L23.8316 47.2261H9.50008L17.791 32.0248Z" fill="#D9D9D9"/>
<path d="M94.449 23.9743V13.6517C94.449 11.7494 93.264 10.9074 91.5487 10.9074C90.1766 10.9074 88.1183 11.4375 86.7773 13.87V23.9743C86.7773 24.7851 89.241 24.8787 89.5217 24.8787V25.5024H82.037V24.8787C82.2242 24.8787 84.0329 24.7851 84.0329 23.9743V13.7141C84.0329 11.8118 82.8791 10.9386 81.1326 10.9386C79.7293 10.9386 77.671 11.4687 76.33 13.87V23.9743C76.33 24.7851 79.1679 24.8475 79.4798 24.8475V25.4712H71.8081V24.8475C71.964 24.8475 73.5857 24.7851 73.5857 23.9743V10.9386C73.5857 10.8762 73.0867 10.6267 72.4942 10.6267C72.3382 10.6267 72.1823 10.6579 72.0264 10.6891V10.1901L76.33 9.37927V12.9345C77.6086 10.5331 79.6357 9.34808 82.1306 9.34808C85.0309 9.34808 86.4654 10.9074 86.6837 12.9345C87.9624 10.5331 90.0518 9.3169 92.5779 9.3169C95.7276 9.3169 97.1934 11.1569 97.1934 13.4334V23.9743C97.1934 24.7851 99.3452 24.8475 99.5947 24.8475V25.4712H92.4219V24.8787C92.6402 24.8787 94.449 24.7851 94.449 23.9743ZM111.169 21.2299V16.9574L108.487 18.2361C106.21 19.234 104.526 19.9825 104.526 21.6353C104.526 22.9763 105.649 24.099 107.052 24.099C108.424 24.099 109.859 23.0387 111.169 21.2299ZM111.169 22.7268V22.1655C110.264 24.3485 107.582 25.6895 105.524 25.6895C103.341 25.6895 101.532 24.1926 101.532 22.1343C101.532 19.6706 104.152 18.735 107.395 17.5812L111.169 16.0842V12.7473C111.169 11.0633 110.981 10.0965 109.36 10.0965C107.364 10.0965 106.21 11.5623 105.524 13.1839C105.118 14.0883 104.744 14.5873 103.902 14.5873C103.341 14.5873 102.53 14.369 102.53 13.5582C102.53 10.5331 106.148 9.37927 108.643 9.37927C112.51 9.37927 114.131 10.7203 114.131 13.2463V22.8828C114.131 23.6 114.225 24.4732 115.628 24.4732C116.158 24.4732 116.844 24.3797 117.811 24.0678L117.562 24.598C116.595 25.1593 115.129 25.7831 113.819 25.7831C112.416 25.7831 111.169 25.0658 111.169 22.7268ZM121.533 11.0321C121.533 10.5643 121.096 10.4708 120.722 10.4708C120.441 10.4708 120.161 10.5331 120.129 10.5331V10.0342L124.402 9.34808V12.3731C126.086 10.502 128.019 9.62876 129.485 9.62876C130.296 9.62876 130.92 9.90943 131.294 10.4396C131.98 11.4375 131.107 12.9345 129.984 12.9345C129.641 12.9345 129.267 12.7785 128.893 12.4043C128.612 12.1236 128.238 11.9989 127.77 11.9989C126.772 11.9989 125.431 12.6226 124.402 13.4646V23.9743C124.402 24.7851 125.992 24.9098 126.398 25.0346V25.4712H119.568V25.0346C119.786 25.0034 121.533 24.7851 121.533 23.9743V11.0321ZM135.183 23.9743V2.92379C135.183 2.36244 134.029 2.36244 133.717 2.42482L133.686 1.92584L138.021 1.23975V18.6103L144.445 10.9074C144.882 10.4084 142.948 10.346 142.948 10.3772V9.84706H148.936V10.346C148.749 10.346 147.065 10.2837 146.036 11.4375L142.138 15.8971L148.468 23.7872C149.092 24.598 150.215 24.941 150.402 24.941V25.4712H143.635V24.9098C143.884 24.9098 146.067 25.0346 145.35 24.0055L140.36 17.9242L137.99 20.6062V23.9743C137.99 24.7851 139.861 24.9098 140.048 24.9098V25.4712H133.125V24.9098C133.312 24.9098 135.183 24.7851 135.183 23.9743ZM155.043 15.3358H164.025C164.025 12.529 162.715 10.6579 159.814 10.6579C156.571 10.6579 155.355 12.9656 155.043 15.3358ZM165.927 21.3235H166.27L166.239 21.9472C164.804 24.6292 162.372 25.6895 159.752 25.6895C155.199 25.6895 151.987 22.5397 151.987 17.6747C151.987 12.7473 155.386 9.62876 160.064 9.62876C164.118 9.62876 166.613 11.9677 166.613 14.868V16.2714H154.981C154.981 19.6706 156.103 24.0055 160.407 24.0055C162.59 24.0055 164.835 22.8828 165.927 21.3235ZM170.559 21.2923V11.4064H168.22V10.845C170.746 9.3169 171.682 7.85116 172.025 5.85526H173.085C173.085 7.63286 172.711 9.47283 173.49 9.87824C173.927 10.0965 175.206 10.1589 176.422 10.1589C177.669 10.1589 178.854 10.0965 179.073 10.0965V11.3752H173.428V21.1675C173.428 23.5689 174.987 24.1926 176.609 24.1926C178.324 24.1926 180.102 23.5065 180.195 23.4441L179.821 24.6292C177.825 25.4712 176.266 25.8142 175.019 25.8142C171.37 25.8142 170.559 22.9139 170.559 21.2923ZM183.783 23.9743V11.0321C183.783 10.5643 183.346 10.4708 182.972 10.4708C182.754 10.4708 182.567 10.502 182.504 10.5331H182.442L182.411 10.0342L186.652 9.34808V23.9743C186.652 24.7851 188.492 24.9098 188.71 24.9098V25.4712H181.787V24.9098C181.974 24.9098 183.783 24.7851 183.783 23.9743ZM183.689 5.07562C183.689 4.10885 184.344 3.45395 185.311 3.45395C186.247 3.45395 186.964 4.10885 186.964 5.07562C186.964 6.04238 186.247 6.72847 185.311 6.72847C184.344 6.72847 183.689 6.04238 183.689 5.07562ZM203.447 14.3378C203.447 12.2796 202.044 10.9074 200.048 10.9074C198.801 10.9074 196.618 11.4064 195.245 13.9012V23.5377C195.245 23.9119 195.62 24.9098 198.239 25.0346V25.4712H190.755V25.097C190.942 25.0658 192.532 24.7851 192.532 23.9743V11.0633C191.846 10.4396 191.098 10.6579 191.004 10.6891L190.973 10.1901L195.245 9.37927V12.9033C196.306 11.0009 197.959 9.34808 201.171 9.34808C204.133 9.34808 206.161 10.7826 206.161 13.4646V23.9743C206.161 24.4109 206.971 24.941 207.938 25.097V25.4712H200.641V25.0346C203.666 24.9098 203.447 23.8495 203.447 23.5377V14.3378ZM212.956 16.209C213.423 19.0781 215.17 20.7933 217.384 20.4503C219.598 20.1384 220.69 18.0178 220.222 15.1487C219.754 12.2796 218.008 10.5643 215.794 10.9074C213.579 11.2192 212.488 13.3399 212.956 16.209ZM217.29 26.2508C214.858 26.2508 211.615 27.1864 211.615 30.1803C211.615 33.1741 213.798 34.5463 216.199 34.5463C219.006 34.5463 222.062 32.6128 222.062 29.2135C222.062 26.9369 219.505 26.2508 217.29 26.2508ZM210.305 15.7724C210.305 12.1236 212.8 9.87824 216.48 9.87824C217.821 9.87824 219.006 10.1901 220.004 10.7514L223.341 10.6267L222.748 12.3107L221.594 12.1236C222.343 13.0904 222.779 14.369 222.779 15.8347C222.779 18.891 220.97 20.8557 218.195 21.417C216.947 21.6665 213.579 22.415 213.579 23.5689C213.579 24.6604 216.636 24.4109 217.727 24.4109C221.002 24.4109 224.65 24.8163 224.65 28.6833C224.65 32.8311 220.471 35.6066 215.731 35.6066C212.301 35.6066 208.808 34.1409 208.808 31.0535C208.808 29.2135 210.024 27.4047 213.423 26.282C211.677 26.0014 210.773 24.7851 210.773 23.7872C210.773 21.916 213.985 21.916 213.985 21.417C213.985 21.2923 213.829 21.1675 213.486 20.9804C211.521 20.1072 210.305 18.2984 210.305 15.7724Z" fill="#FFAEAE"/>
<path d="M137.451 34.2361V44.1221C137.451 45.7437 138.262 48.644 141.91 48.644C143.158 48.644 144.438 48.1684 146.434 47.3264C146.434 47.3264 149.986 45.455 150.332 45.3772C150.678 45.2995 163.325 39.4656 177.419 42.4328C180.377 43.0555 183.115 43.7234 185.749 44.3657C187.23 44.7271 188.679 45.0805 190.115 45.4131C194.075 46.3306 197.883 47.0758 201.8 47.3246C209.682 47.825 216.97 44.5981 227.83 38.6745C217.25 44.4457 209.391 45.8535 201.924 45.3794C198.167 45.1408 194.482 44.4241 190.555 43.5143C189.163 43.192 187.734 42.8435 186.261 42.4841C183.604 41.8362 180.803 41.1532 177.821 40.5255C165.51 37.9338 151.517 41.8118 144.347 45.1738C142.618 45.9843 140.32 45.9065 140.32 43.9973V34.205H145.964V32.9263C145.9 32.9263 145.752 32.9318 145.542 32.9394C145.042 32.9577 144.193 32.9887 143.314 32.9887C142.097 32.9887 140.819 32.9263 140.382 32.708C139.802 32.4065 139.861 31.3111 139.929 30.038C139.952 29.5998 139.977 29.1403 139.977 28.6851H138.916C138.573 30.681 137.638 32.1467 135.112 33.6748V34.2361H137.451Z" fill="#FFAEAE"/>
<path d="M95.0081 36.4815V46.8041C95.0081 47.6149 93.1994 47.7085 92.9811 47.7085V48.301H100.154V47.6773C99.9043 47.6773 97.7525 47.6149 97.7525 46.8041V36.2632C97.7525 33.9867 96.2868 32.1467 93.137 32.1467C90.6109 32.1467 88.5215 33.3629 87.2429 35.7643C87.0246 33.7372 85.59 32.1779 82.6897 32.1779C80.1948 32.1779 78.1678 33.3629 76.8891 35.7643V32.2091L72.5855 33.0199V33.5189C72.7414 33.4877 72.8973 33.4565 73.0533 33.4565C73.6458 33.4565 74.1448 33.706 74.1448 33.7684V46.8041C74.1448 47.6149 72.5231 47.6773 72.3672 47.6773V48.301H80.0389V47.6773C79.7271 47.6773 76.8891 47.6149 76.8891 46.8041V36.6998C78.2301 34.2985 80.2884 33.7684 81.6918 33.7684C83.4382 33.7684 84.5921 34.6416 84.5921 36.5439V46.8041C84.5921 47.6149 82.7833 47.7085 82.5962 47.7085V48.3322H90.0808V47.7085C89.8001 47.7085 87.3364 47.6149 87.3364 46.8041V36.6998C88.6774 34.2673 90.7357 33.7372 92.1079 33.7372C93.8231 33.7372 95.0081 34.5792 95.0081 36.4815Z" fill="#FFAEAE"/>
<path fill-rule="evenodd" clip-rule="evenodd" d="M111.728 44.9953V45.5566C111.728 47.8956 112.975 48.6128 114.378 48.6128C115.688 48.6128 117.154 47.9891 118.121 47.4278L118.37 46.8976C117.404 47.2095 116.717 47.303 116.187 47.303C114.784 47.303 114.69 46.4298 114.69 45.7126V36.0761C114.69 33.5501 113.069 32.2091 109.202 32.2091C106.707 32.2091 103.089 33.3629 103.089 36.388C103.089 37.1988 103.9 37.4171 104.461 37.4171C105.303 37.4171 105.678 36.9181 106.083 36.0137C106.769 34.3921 107.923 32.9263 109.919 32.9263C111.541 32.9263 111.728 33.8931 111.728 35.5771V38.914L107.954 40.411C104.711 41.5648 102.091 42.5004 102.091 44.9641C102.091 47.0224 103.9 48.5193 106.083 48.5193C108.141 48.5193 110.823 47.1783 111.728 44.9953ZM111.728 39.7872V44.0597C110.418 45.8685 108.983 46.9288 107.611 46.9288C106.208 46.9288 105.085 45.8061 105.085 44.4651C105.085 42.8123 106.769 42.0638 109.046 41.0659L111.728 39.7872Z" fill="#FFAEAE"/>
<path d="M122.092 33.8619C122.092 33.3941 121.655 33.3006 121.281 33.3006C121.071 33.3006 120.86 33.3357 120.755 33.3532C120.72 33.359 120.696 33.3629 120.689 33.3629V32.864L124.961 32.1779V35.2029C126.645 33.3318 128.579 32.4586 130.044 32.4586C130.855 32.4586 131.479 32.7392 131.853 33.2694C132.539 34.2673 131.666 35.7643 130.543 35.7643C130.2 35.7643 129.826 35.6083 129.452 35.2341C129.171 34.9534 128.797 34.8287 128.329 34.8287C127.331 34.8287 125.99 35.4524 124.961 36.2944V46.8041C124.961 47.461 126.005 47.6676 126.617 47.7886C126.76 47.817 126.88 47.8407 126.957 47.8644V48.301H120.127V47.8644L120.151 47.8611C120.448 47.8196 122.092 47.5906 122.092 46.8041V33.8619Z" fill="#FFAEAE"/>
</svg>
