<svg width="154" height="33" viewBox="0 0 154 33" fill="none" xmlns="http://www.w3.org/2000/svg">
<path d="M18.5504 5.12061L7.92384 31.2539H0.000389099L10.6269 5.12061H18.5504Z" fill="#B27171"/>
<path d="M31.1504 5.12061L20.5238 31.2539H12.6004L23.2269 5.12061H31.1504Z" fill="#B27171"/>
<path d="M23.4501 5.12061L34.0766 31.2539H42.0001L31.3735 5.12061H23.4501Z" fill="#D9D9D9"/>
<path d="M10.8501 5.12061L21.4766 31.2539H29.4001L18.7735 5.12061H10.8501Z" fill="#D9D9D9"/>
<path d="M12.0161 20.9864L16.0961 31.2539H6.41607L12.0161 20.9864Z" fill="#D9D9D9"/>
<path d="M63.9475 15.6886V8.71639C63.9475 7.43148 63.1471 6.86275 61.9885 6.86275C61.0617 6.86275 59.6715 7.22084 58.7657 8.86384V15.6886C58.7657 16.2363 60.4298 16.2995 60.6194 16.2995V16.7208H55.564V16.2995C55.6904 16.2995 56.9121 16.2363 56.9121 15.6886V8.75852C56.9121 7.47361 56.1327 6.88381 54.9531 6.88381C54.0052 6.88381 52.615 7.2419 51.7092 8.86384V15.6886C51.7092 16.2363 53.6261 16.2784 53.8367 16.2784V16.6997H48.6549V16.2784C48.7603 16.2784 49.8556 16.2363 49.8556 15.6886V6.88381C49.8556 6.84168 49.5186 6.67317 49.1183 6.67317C49.013 6.67317 48.9077 6.69423 48.8024 6.7153V6.37827L51.7092 5.8306V8.23192C52.5729 6.60998 53.942 5.80954 55.6272 5.80954C57.5861 5.80954 58.5551 6.86275 58.7025 8.23192C59.5662 6.60998 60.9775 5.78847 62.6837 5.78847C64.8111 5.78847 65.8012 7.03126 65.8012 8.56894V15.6886C65.8012 16.2363 67.2546 16.2784 67.4231 16.2784V16.6997H62.5783V16.2995C62.7258 16.2995 63.9475 16.2363 63.9475 15.6886ZM75.2405 13.835V10.9492L73.429 11.8128C71.8913 12.4869 70.7539 12.9924 70.7539 14.1088C70.7539 15.0146 71.5122 15.7729 72.4601 15.7729C73.3869 15.7729 74.3558 15.0567 75.2405 13.835ZM75.2405 14.8461V14.4669C74.6297 15.9414 72.8182 16.8472 71.4279 16.8472C69.9534 16.8472 68.7317 15.8361 68.7317 14.4458C68.7317 12.7818 70.5011 12.1498 72.6918 11.3705L75.2405 10.3594V8.10553C75.2405 6.96807 75.1141 6.31508 74.0188 6.31508C72.6707 6.31508 71.8913 7.30509 71.4279 8.40043C71.1541 9.01129 70.9013 9.34832 70.3326 9.34832C69.9534 9.34832 69.4058 9.20087 69.4058 8.6532C69.4058 6.60998 71.8492 5.8306 73.5343 5.8306C76.1463 5.8306 77.2416 6.73636 77.2416 8.44256V14.9514C77.2416 15.4359 77.3048 16.0257 78.2527 16.0257C78.6108 16.0257 79.0742 15.9625 79.7272 15.7518L79.5587 16.1099C78.9057 16.4891 77.9157 16.9103 77.031 16.9103C76.0831 16.9103 75.2405 16.4259 75.2405 14.8461ZM82.2409 6.947C82.2409 6.63104 81.946 6.56785 81.6932 6.56785C81.5037 6.56785 81.3141 6.60998 81.293 6.60998V6.27295L84.1788 5.80954V7.85276C85.3163 6.58891 86.6223 5.99912 87.6123 5.99912C88.1599 5.99912 88.5812 6.18869 88.834 6.54678C89.2974 7.22084 88.7076 8.23192 87.9493 8.23192C87.7176 8.23192 87.4648 8.1266 87.212 7.87383C87.0225 7.68425 86.7697 7.59999 86.4537 7.59999C85.7797 7.59999 84.8739 8.02127 84.1788 8.59001V15.6886C84.1788 16.2363 85.2531 16.3206 85.5269 16.4048V16.6997H80.9139V16.4048C81.0613 16.3837 82.2409 16.2363 82.2409 15.6886V6.947ZM91.4609 15.6886V1.47032C91.4609 1.09117 90.6815 1.09117 90.4709 1.1333L90.4498 0.796268L93.3778 0.332858V12.0656L97.717 6.86275C98.0119 6.52572 96.7059 6.48359 96.7059 6.50466V6.14656H100.75V6.48359C100.624 6.48359 99.4864 6.44146 98.7912 7.22084L96.1582 10.233L100.434 15.5622C100.856 16.1099 101.614 16.3416 101.74 16.3416V16.6997H97.1693V16.3206C97.3378 16.3206 98.8123 16.4048 98.3278 15.7097L94.9576 11.6022L93.3567 13.4137V15.6886C93.3567 16.2363 94.6205 16.3206 94.7469 16.3206V16.6997H90.0707V16.3206C90.1971 16.3206 91.4609 16.2363 91.4609 15.6886ZM104.875 9.85386H110.941C110.941 7.95808 110.057 6.69423 108.098 6.69423C105.907 6.69423 105.086 8.25298 104.875 9.85386ZM112.226 13.8982H112.458L112.437 14.3195C111.468 16.131 109.825 16.8472 108.056 16.8472C104.98 16.8472 102.811 14.7197 102.811 11.4337C102.811 8.10553 105.107 5.99912 108.266 5.99912C111.005 5.99912 112.69 7.57893 112.69 9.53789V10.4858H104.833C104.833 12.7818 105.591 15.7097 108.498 15.7097C109.973 15.7097 111.489 14.9514 112.226 13.8982ZM115.355 13.8771V7.19977H113.775V6.82062C115.481 5.78847 116.113 4.79846 116.345 3.45035H117.061C117.061 4.65101 116.808 5.89379 117.335 6.16763C117.63 6.31508 118.494 6.35721 119.315 6.35721C120.158 6.35721 120.958 6.31508 121.106 6.31508V7.17871H117.293V13.7929C117.293 15.4148 118.346 15.8361 119.442 15.8361C120.6 15.8361 121.801 15.3727 121.864 15.3305L121.611 16.131C120.263 16.6997 119.21 16.9314 118.367 16.9314C115.903 16.9314 115.355 14.9724 115.355 13.8771ZM124.287 15.6886V6.947C124.287 6.63104 123.992 6.56785 123.739 6.56785C123.592 6.56785 123.466 6.58891 123.423 6.60998H123.381L123.36 6.27295L126.225 5.80954V15.6886C126.225 16.2363 127.468 16.3206 127.615 16.3206V16.6997H122.939V16.3206C123.065 16.3206 124.287 16.2363 124.287 15.6886ZM124.224 2.92375C124.224 2.27076 124.666 1.82841 125.319 1.82841C125.951 1.82841 126.436 2.27076 126.436 2.92375C126.436 3.57674 125.951 4.04015 125.319 4.04015C124.666 4.04015 124.224 3.57674 124.224 2.92375ZM137.569 9.1798C137.569 7.78957 136.621 6.86275 135.273 6.86275C134.431 6.86275 132.956 7.19977 132.029 8.8849V15.3937C132.029 15.6465 132.282 16.3206 134.051 16.4048V16.6997H128.996V16.4469C129.122 16.4259 130.197 16.2363 130.197 15.6886V6.96807C129.733 6.54678 129.228 6.69423 129.165 6.7153L129.144 6.37827L132.029 5.8306V8.21085C132.746 6.92594 133.862 5.80954 136.032 5.80954C138.033 5.80954 139.402 6.77849 139.402 8.59001V15.6886C139.402 15.9835 139.949 16.3416 140.602 16.4469V16.6997H135.673V16.4048C137.717 16.3206 137.569 15.6044 137.569 15.3937V9.1798ZM143.991 10.4437C144.307 12.3816 145.487 13.5401 146.983 13.3084C148.478 13.0977 149.215 11.6654 148.899 9.72747C148.583 7.78957 147.404 6.63104 145.908 6.86275C144.413 7.07339 143.676 8.50575 143.991 10.4437ZM146.919 17.2263C145.276 17.2263 143.086 17.8582 143.086 19.8804C143.086 21.9026 144.56 22.8294 146.182 22.8294C148.078 22.8294 150.142 21.5234 150.142 19.2274C150.142 17.6897 148.415 17.2263 146.919 17.2263ZM142.201 10.1488C142.201 7.68425 143.886 6.16763 146.372 6.16763C147.277 6.16763 148.078 6.37827 148.752 6.75742L151.006 6.67317L150.606 7.81063L149.826 7.68425C150.332 8.33724 150.627 9.20087 150.627 10.1909C150.627 12.2552 149.405 13.5822 147.53 13.9614C146.688 14.1299 144.413 14.6354 144.413 15.4148C144.413 16.152 146.477 15.9835 147.214 15.9835C149.426 15.9835 151.891 16.2574 151.891 18.8693C151.891 21.6708 149.068 23.5456 145.866 23.5456C143.549 23.5456 141.19 22.5555 141.19 20.4702C141.19 19.2274 142.011 18.0057 144.307 17.2474C143.128 17.0578 142.517 16.2363 142.517 15.5622C142.517 14.2984 144.687 14.2984 144.687 13.9614C144.687 13.8771 144.581 13.7929 144.35 13.6665C143.023 13.0767 142.201 11.855 142.201 10.1488Z" fill="#FFAEAE"/>
<path d="M92.8388 22.4795V29.1569C92.8388 30.2522 93.3865 32.2112 95.851 32.2112C96.6936 32.2112 97.5582 31.8899 98.9063 31.3212C98.9063 31.3212 101.306 30.0571 101.539 30.0046C101.773 29.9521 110.315 26.0117 119.835 28.0158C121.833 28.4365 123.682 28.8876 125.461 29.3214C126.462 29.5655 127.44 29.8042 128.41 30.0289C131.085 30.6486 133.657 31.1519 136.303 31.3199C141.627 31.658 146.55 29.4784 153.885 25.4774C146.738 29.3754 141.43 30.3263 136.386 30.0061C133.849 29.8449 131.36 29.3609 128.707 28.7463C127.768 28.5286 126.802 28.2932 125.807 28.0505C124.012 27.6129 122.12 27.1516 120.106 26.7276C111.791 24.9771 102.34 27.5964 97.4967 29.8672C96.3291 30.4147 94.7767 30.3622 94.7767 29.0726V22.4585H98.5893V21.5948C98.5458 21.5948 98.4455 21.5985 98.3041 21.6037C97.966 21.616 97.3929 21.637 96.7989 21.637C95.9774 21.637 95.1137 21.5948 94.8188 21.4474C94.4271 21.2437 94.4667 20.5038 94.5126 19.644C94.5284 19.348 94.545 19.0376 94.545 18.7301H93.8288C93.5971 20.0782 92.9652 21.0682 91.259 22.1004V22.4795H92.8388Z" fill="#FFAEAE"/>
<path d="M64.1715 23.9961V30.9684C64.1715 31.516 62.9498 31.5792 62.8023 31.5792V31.9795H67.6471V31.5582C67.4786 31.5582 66.0251 31.516 66.0251 30.9684V23.8487C66.0251 22.311 65.0351 21.0682 62.9076 21.0682C61.2014 21.0682 59.7901 21.8897 58.9265 23.5117C58.7791 22.1425 57.8101 21.0893 55.8511 21.0893C54.166 21.0893 52.7968 21.8897 51.9332 23.5117V21.1104L49.0264 21.658V21.995C49.1317 21.974 49.237 21.9529 49.3423 21.9529C49.7425 21.9529 50.0796 22.1214 50.0796 22.1636V30.9684C50.0796 31.516 48.9842 31.5582 48.8789 31.5582V31.9795H54.0607V31.5582C53.85 31.5582 51.9332 31.516 51.9332 30.9684V24.1436C52.839 22.5217 54.2292 22.1636 55.1771 22.1636C56.3567 22.1636 57.1361 22.7534 57.1361 24.0383V30.9684C57.1361 31.516 55.9143 31.5792 55.7879 31.5792V32.0005H60.8433V31.5792C60.6538 31.5792 58.9897 31.516 58.9897 30.9684V24.1436C59.8955 22.5006 61.2857 22.1425 62.2125 22.1425C63.371 22.1425 64.1715 22.7112 64.1715 23.9961Z" fill="#FFAEAE"/>
<path fill-rule="evenodd" clip-rule="evenodd" d="M75.4645 29.7467V30.1258C75.4645 31.7056 76.3071 32.1901 77.255 32.1901C78.1397 32.1901 79.1297 31.7688 79.7827 31.3897L79.9512 31.0316C79.2982 31.2422 78.8348 31.3054 78.4767 31.3054C77.5288 31.3054 77.4656 30.7156 77.4656 30.2311V23.7223C77.4656 22.0161 76.3703 21.1104 73.7583 21.1104C72.0732 21.1104 69.6297 21.8897 69.6297 23.9329C69.6297 24.4806 70.1774 24.6281 70.5566 24.6281C71.1253 24.6281 71.3781 24.291 71.6519 23.6802C72.1153 22.5848 72.8947 21.5948 74.2428 21.5948C75.3381 21.5948 75.4645 22.2478 75.4645 23.3853V25.6391L72.9157 26.6502C70.7251 27.4296 68.9557 28.0615 68.9557 29.7256C68.9557 31.1158 70.1774 32.1269 71.6519 32.1269C73.0421 32.1269 74.8536 31.2211 75.4645 29.7467ZM75.4645 26.2289V29.1147C74.5798 30.3365 73.6109 31.0526 72.684 31.0526C71.7362 31.0526 70.9778 30.2943 70.9778 29.3886C70.9778 28.2722 72.1153 27.7666 73.653 27.0926L75.4645 26.2289Z" fill="#FFAEAE"/>
<path d="M82.4649 22.2268C82.4649 21.9108 82.17 21.8476 81.9172 21.8476C81.775 21.8476 81.6328 21.8713 81.5618 21.8831C81.5381 21.8871 81.5223 21.8897 81.517 21.8897V21.5527L84.4028 21.0893V23.1325C85.5402 21.8687 86.8462 21.2789 87.8362 21.2789C88.3839 21.2789 88.8052 21.4684 89.058 21.8265C89.5214 22.5006 88.9316 23.5117 88.1733 23.5117C87.9416 23.5117 87.6888 23.4063 87.436 23.1536C87.2464 22.964 86.9937 22.8797 86.6777 22.8797C86.0037 22.8797 85.0979 23.301 84.4028 23.8698V30.9684C84.4028 31.4121 85.1079 31.5516 85.5212 31.6334C85.618 31.6526 85.699 31.6686 85.7509 31.6846V31.9795H81.1378V31.6846L81.1538 31.6823C81.3548 31.6543 82.4649 31.4997 82.4649 30.9684V22.2268Z" fill="#FFAEAE"/>
</svg>
