<svg width="21" height="20" viewBox="0 0 21 20" fill="none" xmlns="http://www.w3.org/2000/svg">
<path d="M20.1503 17.8751C18.7225 15.4067 16.5222 13.6367 13.9544 12.7976C15.2246 12.0415 16.2114 10.8893 16.7634 9.51804C17.3153 8.14678 17.4019 6.63224 17.0098 5.20701C16.6177 3.78178 15.7685 2.52467 14.5928 1.62873C13.4171 0.732786 11.9798 0.247559 10.5016 0.247559C9.02341 0.247559 7.58609 0.732786 6.41037 1.62873C5.23465 2.52467 4.38553 3.78178 3.99342 5.20701C3.6013 6.63224 3.68787 8.14678 4.23983 9.51804C4.7918 10.8893 5.77863 12.0415 7.04878 12.7976C4.48097 13.6357 2.28066 15.4057 0.852847 17.8751C0.800486 17.9605 0.765756 18.0555 0.750705 18.1545C0.735654 18.2535 0.740587 18.3545 0.765213 18.4516C0.789839 18.5487 0.83366 18.6399 0.894089 18.7197C0.954518 18.7996 1.03033 18.8666 1.11706 18.9167C1.20378 18.9667 1.29966 18.999 1.39904 19.0114C1.49842 19.0238 1.59928 19.0163 1.69568 18.9891C1.79208 18.9619 1.88205 18.9157 1.9603 18.8532C2.03855 18.7907 2.10349 18.7131 2.15128 18.6251C3.91753 15.5726 7.03941 13.7501 10.5016 13.7501C13.9638 13.7501 17.0857 15.5726 18.8519 18.6251C18.8997 18.7131 18.9646 18.7907 19.0429 18.8532C19.1211 18.9157 19.2111 18.9619 19.3075 18.9891C19.4039 19.0163 19.5048 19.0238 19.6042 19.0114C19.7035 18.999 19.7994 18.9667 19.8861 18.9167C19.9729 18.8666 20.0487 18.7996 20.1091 18.7197C20.1695 18.6399 20.2134 18.5487 20.238 18.4516C20.2626 18.3545 20.2675 18.2535 20.2525 18.1545C20.2374 18.0555 20.2027 17.9605 20.1503 17.8751ZM5.2516 7.00011C5.2516 5.96176 5.5595 4.94672 6.13638 4.08337C6.71326 3.22001 7.5332 2.5471 8.49251 2.14974C9.45182 1.75238 10.5074 1.64841 11.5258 1.85099C12.5442 2.05356 13.4797 2.55357 14.2139 3.2878C14.9481 4.02202 15.4481 4.95748 15.6507 5.97589C15.8533 6.99429 15.7493 8.04989 15.352 9.0092C14.9546 9.96851 14.2817 10.7884 13.4183 11.3653C12.555 11.9422 11.5399 12.2501 10.5016 12.2501C9.10967 12.2486 7.77517 11.695 6.79093 10.7108C5.80669 9.72653 5.25309 8.39204 5.2516 7.00011Z" fill="#F2F2F2"/>
</svg>
